<?xml version="1.0" encoding="UTF-8" standalone="no" ?>
<!DOCTYPE svg PUBLIC "-//W3C//DTD SVG 1.1//EN" "http://www.w3.org/Graphics/SVG/1.1/DTD/svg11.dtd">
<svg xmlns="http://www.w3.org/2000/svg" xmlns:xlink="http://www.w3.org/1999/xlink" version="1.1" width="1280" height="1024" viewBox="0 0 1280 1024" xml:space="preserve">
<desc>Created with Fabric.js 4.4.0</desc>
<defs>
</defs>
<g transform="matrix(1 0 0 1 640 512)" id="background-logo"  >
<rect style="stroke: none; stroke-width: 0; stroke-dasharray: none; stroke-linecap: butt; stroke-dashoffset: 0; stroke-linejoin: miter; stroke-miterlimit: 4; fill: rgb(255,255,255); fill-opacity: 0; fill-rule: nonzero; opacity: 1;"  paint-order="stroke"  x="-640" y="-512" rx="0" ry="0" width="1280" height="1024" />
</g>
<g transform="matrix(1.9211538461538462 0 0 1.9211538461538462 640 454.9184395108074)" id="logo-logo"  >
<g style=""  paint-order="stroke"   >
		<g transform="matrix(0.06551848840785815 0 0 -0.06551848840785815 0.00016379622093154467 0.0002948331978416263)"  >
<path style="stroke: none; stroke-width: 1; stroke-dasharray: none; stroke-linecap: butt; stroke-dashoffset: 0; stroke-linejoin: miter; stroke-miterlimit: 4; fill: rgb(0,0,0); fill-rule: nonzero; opacity: 1;"  paint-order="stroke"  transform=" translate(-1995.2174999999997, -1995.2105)" d="M 3449.24 1995.22 C 3449.24 2798.25 2798.24 3449.23 1995.2099999999998 3449.23 C 1192.1799999999998 3449.23 541.1949999999997 2798.25 541.1949999999997 1995.22 C 541.1949999999997 1192.19 1192.1799999999998 541.191 1995.2099999999998 541.191 C 2798.24 541.191 3449.24 1192.19 3449.24 1995.22" stroke-linecap="round" />
</g>
		<g transform="matrix(0.06551848840785815 0 0 -0.06551848840785815 0 -106.08786402244596)"  >
<path style="stroke: none; stroke-width: 1; stroke-dasharray: none; stroke-linecap: butt; stroke-dashoffset: 0; stroke-linejoin: miter; stroke-miterlimit: 4; fill: rgb(115,115,115); fill-rule: nonzero; opacity: 1;"  paint-order="stroke"  transform=" translate(-1995.2150000000001, -3614.42)" d="M 1712.29 3790.55 C 2120.13 3712.88 2480.59 3546.48 2762.51 3325.8900000000003 C 2515.2400000000002 3675.03 2108.1200000000003 3902.9500000000003 1647.7200000000003 3902.9500000000003 C 1501.2400000000002 3902.9500000000003 1360.1900000000003 3879.7900000000004 1227.9200000000003 3837.07 C 1385.7200000000003 3836.84 1548.0800000000004 3821.82 1712.2900000000004 3790.55" stroke-linecap="round" />
</g>
		<g transform="matrix(0.06551848840785815 0 0 -0.06551848840785815 0 106.08814247602169)"  >
<path style="stroke: none; stroke-width: 1; stroke-dasharray: none; stroke-linecap: butt; stroke-dashoffset: 0; stroke-linejoin: miter; stroke-miterlimit: 4; fill: rgb(115,115,115); fill-rule: nonzero; opacity: 1;"  paint-order="stroke"  transform=" translate(-1995.2150000000001, -376.00575000000003)" d="M 2278.13 199.871 C 1870.3000000000002 277.539 1509.8400000000001 443.94100000000003 1227.92 664.5310000000001 C 1475.19 315.3910000000001 1882.31 87.4805 2342.71 87.4805 C 2489.19 87.4805 2630.24 110.641 2762.51 153.352 C 2604.71 153.578 2442.3500000000004 168.59 2278.13 199.871" stroke-linecap="round" />
</g>
		<g transform="matrix(0.06551848840785815 0 0 -0.06551848840785815 106.08786402244596 -2.842171e-14)"  >
<path style="stroke: none; stroke-width: 1; stroke-dasharray: none; stroke-linecap: butt; stroke-dashoffset: 0; stroke-linejoin: miter; stroke-miterlimit: 4; fill: rgb(115,115,115); fill-rule: nonzero; opacity: 1;"  paint-order="stroke"  transform=" translate(-3614.42, -1995.2150000000001)" d="M 3790.55 2278.14 C 3712.88 1870.3 3546.48 1509.84 3325.8900000000003 1227.9199999999998 C 3675.03 1475.1899999999998 3902.9500000000003 1882.31 3902.9500000000003 2342.71 C 3902.9500000000003 2489.19 3879.7900000000004 2630.24 3837.07 2762.51 C 3836.84 2604.71 3821.8300000000004 2442.3500000000004 3790.55 2278.1400000000003" stroke-linecap="round" />
</g>
		<g transform="matrix(0.06551848840785815 0 0 -0.06551848840785815 -106.08814247602174 -2.842171e-14)"  >
<path style="stroke: none; stroke-width: 1; stroke-dasharray: none; stroke-linecap: butt; stroke-dashoffset: 0; stroke-linejoin: miter; stroke-miterlimit: 4; fill: rgb(115,115,115); fill-rule: nonzero; opacity: 1;"  paint-order="stroke"  transform=" translate(-376.00575000000003, -1995.2150000000001)" d="M 199.871 1712.3 C 277.539 2120.13 443.938 2480.59 664.5310000000001 2762.51 C 315.391 2515.24 87.4805 2108.12 87.4805 1647.72 C 87.4805 1501.24 110.64500000000001 1360.19 153.352 1227.92 C 153.586 1385.72 168.594 1548.0800000000002 199.871 1712.3000000000002" stroke-linecap="round" />
</g>
		<g transform="matrix(0.06551848840785815 0 0 -0.06551848840785815 74.13065337541627 -73.48914011511619)"  >
<path style="stroke: none; stroke-width: 1; stroke-dasharray: none; stroke-linecap: butt; stroke-dashoffset: 0; stroke-linejoin: miter; stroke-miterlimit: 4; fill: rgb(115,115,115); fill-rule: nonzero; opacity: 1;"  paint-order="stroke"  transform=" translate(-3126.6613318192976, -3116.87)" d="M 3064.65 3464.76 C 3298.12 3121.46 3435.33 2748.92 3478.7000000000003 2393.58 C 3550.7400000000002 2815.31 3424.0200000000004 3264.3599999999997 3098.4800000000005 3589.8999999999996 C 2994.8900000000003 3693.4799999999996 2878.7700000000004 3776.8399999999997 2755.0400000000004 3840.16 C 2866.4600000000005 3728.41 2970.6400000000003 3603 3064.6500000000005 3464.7599999999998" stroke-linecap="round" />
</g>
		<g transform="matrix(0.06551848840785815 0 0 -0.06551848840785815 -74.13124982652175 73.48972978151181)"  >
<path style="stroke: none; stroke-width: 1; stroke-dasharray: none; stroke-linecap: butt; stroke-dashoffset: 0; stroke-linejoin: miter; stroke-miterlimit: 4; fill: rgb(115,115,115); fill-rule: nonzero; opacity: 1;"  paint-order="stroke"  transform=" translate(-863.759564626577, -873.5509999999999)" d="M 925.77 525.66 C 692.309 868.969 555.09 1241.5 511.719 1596.84 C 439.684 1175.12 566.41 726.07 891.953 400.531 C 995.535 296.949 1111.66 213.59 1235.38 150.262 C 1123.96 262.012 1019.78 387.422 925.77 525.66" stroke-linecap="round" />
</g>
		<g transform="matrix(0.06551848840785815 0 0 -0.06551848840785815 73.4894677075581 74.13064163067651)"  >
<path style="stroke: none; stroke-width: 1; stroke-dasharray: none; stroke-linecap: butt; stroke-dashoffset: 0; stroke-linejoin: miter; stroke-miterlimit: 4; fill: rgb(115,115,115); fill-rule: nonzero; opacity: 1;"  paint-order="stroke"  transform=" translate(-3116.875, -863.7688474391072)" d="M 3464.77 925.781 C 3121.46 692.309 2748.92 555.09 2393.58 511.73 C 2815.3 439.69100000000003 3264.3599999999997 566.41 3589.8999999999996 891.9490000000001 C 3693.4799999999996 995.5390000000001 3776.8399999999997 1111.66 3840.1699999999996 1235.39 C 3728.4199999999996 1123.97 3602.9999999999995 1019.7900000000001 3464.7699999999995 925.7810000000002" stroke-linecap="round" />
</g>
		<g transform="matrix(0.06551848840785815 0 0 -0.06551848840785815 -73.4898608184887 -74.13127823663336)"  >
<path style="stroke: none; stroke-width: 1; stroke-dasharray: none; stroke-linecap: butt; stroke-dashoffset: 0; stroke-linejoin: miter; stroke-miterlimit: 4; fill: rgb(115,115,115); fill-rule: nonzero; opacity: 1;"  paint-order="stroke"  transform=" translate(-873.5489999999999, -3126.6708689931893)" d="M 525.664 3064.66 C 868.961 3298.12 1241.5 3435.3399999999997 1596.84 3478.71 C 1175.12 3550.75 726.074 3424.02 400.53099999999995 3098.4700000000003 C 296.94899999999996 2994.8900000000003 213.58999999999995 2878.7700000000004 150.25799999999995 2755.05 C 262.01199999999994 2866.4700000000003 387.4219999999999 2970.65 525.664 3064.6600000000003" stroke-linecap="round" />
</g>
		<g transform="matrix(0.06551848840785815 0 0 -0.06551848840785815 40.817035500769464 -95.57968125915164)"  >
<path style="stroke: none; stroke-width: 1; stroke-dasharray: none; stroke-linecap: butt; stroke-dashoffset: 0; stroke-linejoin: miter; stroke-miterlimit: 4; fill: rgb(0,0,0); fill-rule: nonzero; opacity: 1;"  paint-order="stroke"  transform=" translate(-2618.2, -3454.035)" d="M 2440.12 3757.41 C 2784.68 3525.8199999999997 3050.83 3231.23 3223.47 2917.64 C 3133.18 3335.83 2848.2799999999997 3705.33 2424.8799999999997 3886.14 C 2290.1699999999996 3943.67 2151.3499999999995 3977.77 2012.9299999999996 3990.43 C 2157.9599999999996 3928.23 2301.3799999999997 3850.68 2440.1199999999994 3757.41" stroke-linecap="round" />
</g>
		<g transform="matrix(0.06551848840785815 0 0 -0.06551848840785815 -40.81628203815285 95.58000885159367)"  >
<path style="stroke: none; stroke-width: 1; stroke-dasharray: none; stroke-linecap: butt; stroke-dashoffset: 0; stroke-linejoin: miter; stroke-miterlimit: 4; fill: rgb(0,0,0); fill-rule: nonzero; opacity: 1;"  paint-order="stroke"  transform=" translate(-1372.2415, -536.39)" d="M 1550.32 233.012 C 1205.76 464.609 939.617 759.199 766.973 1072.78 C 857.258 654.59 1142.17 285.102 1565.57 104.289 C 1700.28 46.7617 1839.1 12.6719 1977.51 0 C 1832.48 62.1914 1689.06 139.75 1550.32 233.012" stroke-linecap="round" />
</g>
		<g transform="matrix(0.06551848840785815 0 0 -0.06551848840785815 95.58000885159367 40.816413075129645)"  >
<path style="stroke: none; stroke-width: 1; stroke-dasharray: none; stroke-linecap: butt; stroke-dashoffset: 0; stroke-linejoin: miter; stroke-miterlimit: 4; fill: rgb(0,0,0); fill-rule: nonzero; opacity: 1;"  paint-order="stroke"  transform=" translate(-3454.04, -1372.2395000000001)" d="M 3757.42 1550.32 C 3525.83 1205.76 3231.2400000000002 939.6089999999999 2917.65 766.9689999999999 C 3335.84 857.262 3705.34 1142.1599999999999 3886.15 1565.56 C 3943.6800000000003 1700.27 3977.77 1839.09 3990.4300000000003 1977.51 C 3928.2400000000002 1832.48 3850.6800000000003 1689.06 3757.42 1550.32" stroke-linecap="round" />
</g>
		<g transform="matrix(0.06551848840785815 0 0 -0.06551848840785815 -95.5796812591517 -40.81703550076952)"  >
<path style="stroke: none; stroke-width: 1; stroke-dasharray: none; stroke-linecap: butt; stroke-dashoffset: 0; stroke-linejoin: miter; stroke-miterlimit: 4; fill: rgb(0,0,0); fill-rule: nonzero; opacity: 1;"  paint-order="stroke"  transform=" translate(-536.395, -2618.2)" d="M 233.02 2440.12 C 464.60900000000004 2784.68 759.199 3050.8199999999997 1072.79 3223.47 C 654.602 3133.18 285.105 2848.27 104.297 2424.87 C 46.7695 2290.16 12.6758 2151.34 0 2012.93 C 62.1992 2157.96 139.758 2301.38 233.02 2440.12" stroke-linecap="round" />
</g>
		<g transform="matrix(0.06551848840785815 0 0 -0.06551848840785815 103.61446300975672 -38.72339220369639)"  >
<path style="stroke: none; stroke-width: 1; stroke-dasharray: none; stroke-linecap: butt; stroke-dashoffset: 0; stroke-linejoin: miter; stroke-miterlimit: 4; fill: rgb(0,0,0); fill-rule: nonzero; opacity: 1;"  paint-order="stroke"  transform=" translate(-3576.6688083471645, -2586.245)" d="M 3555.87 2926.7 C 3635.75 2519.29 3615.63 2122.79 3515.97 1778.9699999999998 C 3747.85 2138.5299999999997 3807.6699999999996 2601.25 3636.12 3028.5 C 3581.54 3164.43 3507.49 3286.69 3418.56 3393.52 C 3477.16 3247 3523.71 3090.74 3555.87 2926.7" stroke-linecap="round" />
</g>
		<g transform="matrix(0.06551848840785815 0 0 -0.06551848840785815 -103.61372178581541 38.723457722184776)"  >
<path style="stroke: none; stroke-width: 1; stroke-dasharray: none; stroke-linecap: butt; stroke-dashoffset: 0; stroke-linejoin: miter; stroke-miterlimit: 4; fill: rgb(0,0,0); fill-rule: nonzero; opacity: 1;"  paint-order="stroke"  transform=" translate(-413.77250485555817, -1404.1840000000002)" d="M 434.57 1063.74 C 354.688 1471.1399999999999 374.79699999999997 1867.65 474.465 2211.4700000000003 C 242.598 1851.91 182.781 1389.18 354.324 961.93 C 408.906 826.012 482.961 703.738 571.875 596.898 C 513.293 743.441 466.73 899.691 434.57 1063.74" stroke-linecap="round" />
</g>
		<g transform="matrix(0.06551848840785815 0 0 -0.06551848840785815 38.72404738858046 103.61373301910982)"  >
<path style="stroke: none; stroke-width: 1; stroke-dasharray: none; stroke-linecap: butt; stroke-dashoffset: 0; stroke-linejoin: miter; stroke-miterlimit: 4; fill: rgb(0,0,0); fill-rule: nonzero; opacity: 1;"  paint-order="stroke"  transform=" translate(-2586.255, -413.77233340327484)" d="M 2926.71 434.57 C 2519.3 354.691 2122.78 374.801 1778.97 474.469 C 2138.52 242.602 2601.26 182.77 3028.51 354.32 C 3164.43 408.898 3286.7 482.949 3393.54 571.879 C 3247 513.281 3090.75 466.73 2926.71 434.57" stroke-linecap="round" />
</g>
		<g transform="matrix(0.06551848840785815 0 0 -0.06551848840785815 -38.723261166719624 -103.61450194935512)"  >
<path style="stroke: none; stroke-width: 1; stroke-dasharray: none; stroke-linecap: butt; stroke-dashoffset: 0; stroke-linejoin: miter; stroke-miterlimit: 4; fill: rgb(0,0,0); fill-rule: nonzero; opacity: 1;"  paint-order="stroke"  transform=" translate(-1404.187, -3576.6694026770892)" d="M 1063.75 3555.87 C 1471.15 3635.7599999999998 1867.65 3615.64 2211.46 3515.98 C 1851.91 3747.84 1389.19 3807.66 961.953 3636.11 C 826.008 3581.54 703.738 3507.48 596.914 3418.57 C 743.438 3477.15 899.6949999999999 3523.71 1063.75 3555.8700000000003" stroke-linecap="round" />
</g>
</g>
</g>
<g transform="matrix(1.9211538461538462 0 0 1.9211538461538462 643.4560852707885 781.9543426095024)" id="text-logo-path-group"  >
<g style=""  paint-order="stroke"   >
		<g transform="matrix(1 0 0 1 -5.684342e-14 0)" id="text-logo-path-0"  >
<path style="stroke: none; stroke-width: 0; stroke-dasharray: none; stroke-linecap: butt; stroke-dashoffset: 0; stroke-linejoin: miter; stroke-miterlimit: 4; fill: rgb(0,0,0); fill-rule: nonzero; opacity: 1;"  paint-order="stroke"  transform=" translate(-166.915, 21.745)" d="M 24.58 0 L 1.88 0 L 1.88 -8.83 L 7.57 -8.83 L 7.57 -35.28 L 1.88 -35.28 L 1.88 -44.11 L 24.58 -44.11 L 24.58 -35.28 L 18.89 -35.28 L 18.89 -8.83 L 24.58 -8.83 L 24.58 0 Z M 41.59 0 L 30.24 0 L 30.24 -44.11 L 42.21 -44.11 L 57.34 -17.63 L 57.34 -44.11 L 68.66 -44.11 L 68.66 0 L 56.69 0 L 41.59 -26.46 L 41.59 0 Z M 100.81 0 L 76.23 0 L 76.23 -44.11 L 100.81 -44.11 Q 107.91 -44.11 111.6 -40.42 Q 115.29 -36.73 115.29 -29.62 L 115.29 -29.62 L 115.29 -14.49 Q 115.29 -7.38 111.6 -3.69 Q 107.91 0 100.81 0 L 100.81 0 Z M 87.58 -35.28 L 87.58 -8.83 L 98.28 -8.83 Q 103.94 -8.83 103.94 -14.49 L 103.94 -14.49 L 103.94 -29.62 Q 103.94 -35.28 98.28 -35.28 L 98.28 -35.28 L 87.58 -35.28 Z M 121.57 -11.97 L 121.57 -11.97 L 121.57 -44.11 L 132.92 -44.11 L 132.92 -11.97 Q 132.92 -8.18 136.67 -8.18 L 136.67 -8.18 L 146.15 -8.18 Q 149.93 -8.18 149.9 -11.97 L 149.9 -11.97 L 149.9 -44.11 L 161.25 -44.11 L 161.25 -11.97 Q 161.25 -5.35 158.27 -2.37 Q 155.29 0.62 148.67 0.62 L 148.67 0.62 L 134.15 0.62 Q 127.54 0.62 124.55 -2.37 Q 121.57 -5.35 121.57 -11.97 Z M 166.91 -29.62 L 166.91 -29.62 L 166.91 -31.5 Q 166.91 -38.11 169.91 -41.11 Q 172.91 -44.11 179.53 -44.11 L 179.53 -44.11 L 201.64 -44.11 L 201.64 -35.28 L 182.05 -35.28 Q 178.26 -35.28 178.26 -31.5 L 178.26 -31.5 L 178.26 -30.24 Q 178.26 -26.46 182.05 -26.46 L 182.05 -26.46 L 193.4 -26.46 Q 199.58 -26.46 202.47 -23.56 Q 205.37 -20.67 205.37 -14.49 L 205.37 -14.49 L 205.37 -11.35 Q 205.37 -5.17 202.46 -2.28 Q 199.55 0.62 193.4 0.62 L 193.4 0.62 Q 190.2 0.62 186.57 0.49 L 186.57 0.49 L 180.79 0.25 Q 174.36 -0.06 167.5 -0.62 L 167.5 -0.62 L 167.5 -9.14 Q 184.75 -8.18 190.88 -8.18 L 190.88 -8.18 Q 192.32 -8.18 193.17 -9.04 Q 194.01 -9.91 194.01 -11.35 L 194.01 -11.35 L 194.01 -17.01 L 179.53 -17.01 Q 172.91 -17.01 169.91 -20.01 Q 166.91 -23.01 166.91 -29.62 Z M 217.98 -35.28 L 204.72 -35.28 L 204.72 -44.11 L 242.53 -44.11 L 242.53 -35.28 L 229.3 -35.28 L 229.3 0 L 217.98 0 L 217.98 -35.28 Z M 258.28 0 L 246.92 0 L 246.92 -44.11 L 273.38 -44.11 Q 279.99 -44.11 282.99 -41.11 Q 285.99 -38.11 285.99 -31.5 L 285.99 -31.5 L 285.99 -25.84 Q 285.99 -20.61 284.25 -17.7 Q 282.52 -14.8 278.73 -13.87 L 278.73 -13.87 L 286.61 0 L 274.33 0 L 267.07 -13.23 L 258.28 -13.23 L 258.28 0 Z M 258.28 -35.28 L 258.28 -22.06 L 270.86 -22.06 Q 274.64 -22.06 274.64 -25.84 L 274.64 -25.84 L 274.64 -31.5 Q 274.64 -35.28 270.86 -35.28 L 270.86 -35.28 L 258.28 -35.28 Z M 303.93 -11.66 L 287.22 -44.11 L 299.19 -44.11 L 309.59 -22.67 L 319.98 -44.11 L 331.95 -44.11 L 315.25 -11.66 L 315.25 0 L 303.93 0 L 303.93 -11.66 Z" stroke-linecap="round" />
</g>
</g>
</g>
<g transform="matrix(1.9211538461538462 0 0 1.9211538461538462 638.0769700270432 459.24414984116316)" id="tagline-e4ca7079-b42b-4c27-8b80-fc38d479a0f5-logo-path-group"  >
<g style=""  paint-order="stroke"   >
		<g transform="matrix(1 0 0 1 0 0)" id="tagline-e4ca7079-b42b-4c27-8b80-fc38d479a0f5-logo-path-0"  >
<path style="stroke: rgb(255,255,255); stroke-width: 0; stroke-dasharray: none; stroke-linecap: butt; stroke-dashoffset: 0; stroke-linejoin: miter; stroke-miterlimit: 4; fill: rgb(255,255,255); fill-rule: nonzero; opacity: 1;"  paint-order="stroke"  transform=" translate(-63.48, 34.519999999999996)" d="M 22.02 -56.01 L 0.98 -56.01 L 0.98 -70.02 L 60.99 -70.02 L 60.99 -56.01 L 39.99 -56.01 L 39.99 0 L 22.02 0 L 22.02 -56.01 Z M 64.94 -47.02 L 64.94 -47.02 L 64.94 -50 Q 64.94 -60.5 69.7 -65.26 Q 74.46 -70.02 84.96 -70.02 L 84.96 -70.02 L 120.07 -70.02 L 120.07 -56.01 L 88.96 -56.01 Q 82.96 -56.01 82.96 -50 L 82.96 -50 L 82.96 -48 Q 82.96 -41.99 88.96 -41.99 L 88.96 -41.99 L 106.98 -41.99 Q 116.8 -41.99 121.39 -37.4 Q 125.98 -32.81 125.98 -23 L 125.98 -23 L 125.98 -18.02 Q 125.98 -8.2 121.36 -3.61 Q 116.75 0.98 106.98 0.98 L 106.98 0.98 Q 101.9 0.98 96.14 0.78 L 96.14 0.78 L 86.96 0.39 Q 76.76 -0.1 65.87 -0.98 L 65.87 -0.98 L 65.87 -14.5 Q 93.26 -12.99 102.98 -12.99 L 102.98 -12.99 Q 105.27 -12.99 106.62 -14.36 Q 107.96 -15.72 107.96 -18.02 L 107.96 -18.02 L 107.96 -27 L 84.96 -27 Q 74.46 -27 69.7 -31.76 Q 64.94 -36.52 64.94 -47.02 Z" stroke-linecap="round" />
</g>
</g>
</g>
<g transform="matrix(0 3.805348804084558 -3.805348804084558 0 640.4420875619544 512.3536700495636)" id="shape-6bf08410-9a43-4e4a-8792-9b174fcf6ea4-logo"  >
<g style=""  paint-order="stroke"   >
		<g transform="matrix(1 0 0 1 0 0)" id="Layer_1"  >
<polygon style="stroke: none; stroke-width: 1; stroke-dasharray: none; stroke-linecap: butt; stroke-dashoffset: 0; stroke-linejoin: miter; stroke-miterlimit: 4; fill: rgb(0,0,0); fill-rule: nonzero; opacity: 1;"  paint-order="stroke"  points="100,100 0,100 0,95.12 95.12,95.12 95.12,-95.12 -95.12,-95.12 -95.12,0 -100,0 -100,-100 100,-100 100,100 " />
</g>
</g>
</g>
</svg>